<svg version="1.1" id="Layer_1" xmlns="http://www.w3.org/2000/svg"
  xmlns:xlink="http://www.w3.org/1999/xlink" x="0px" y="0px"
  width="100%" viewBox="0 0 400 400" enable-background="new 0 0 400 400" xml:space="preserve">
<path fill="#9FE870" opacity="1.000000" stroke="none"
	d="M192.000000,401.000000
	C128.019836,401.000000 64.539680,401.000000 1.029761,401.000000
	C1.029761,267.728180 1.029761,134.456329 1.029761,1.092250
	C134.230118,1.092250 267.460327,1.092250 400.845276,1.092250
	C400.845276,134.333191 400.845276,267.666565 400.845276,401.000000
	C331.456390,401.000000 261.978210,401.000000 192.000000,401.000000
M292.216766,118.830467
	C294.489716,112.467552 296.762634,106.104637 299.068939,99.648376
	C235.746094,99.648376 172.952835,99.648376 109.637825,99.648376
	C110.720268,101.664436 111.464874,103.127480 112.276917,104.552086
	C122.229942,122.013306 132.192429,139.469131 142.153793,156.925598
	C143.287445,158.912216 144.499634,160.431992 142.273499,162.973648
	C130.557541,176.350250 119.113419,189.965347 107.605461,203.523560
	C100.893410,211.431442 94.238541,219.387878 87.080460,227.889587
	C121.764030,227.889587 155.513275,227.889587 189.475311,227.889587
	C193.206329,217.455994 196.894836,207.141251 200.897797,195.947159
	C185.886765,195.947159 172.037872,195.947159 157.260361,195.947159
	C166.647476,184.963120 175.345596,174.785294 184.038177,164.613953
	C178.190323,154.440338 172.518311,144.572632 166.574081,134.231354
	C193.002060,134.231354 218.660400,134.231354 244.797943,134.231354
	C224.506073,190.463562 204.365433,246.276657 183.965775,302.807556
	C196.995789,302.807556 209.126938,302.669495 221.251358,302.894257
	C224.749283,302.959045 226.188797,301.647583 227.264496,298.507965
	C230.814255,288.147369 234.659943,277.888214 238.387161,267.588318
	C256.241943,218.247772 274.095184,168.906647 292.216766,118.830467 z"/>
<path fill="#173401" opacity="1.000000" stroke="none"
	d="M292.082855,119.198090
	C274.095184,168.906647 256.241943,218.247772 238.387161,267.588318
	C234.659943,277.888214 230.814255,288.147369 227.264496,298.507965
	C226.188797,301.647583 224.749283,302.959045 221.251358,302.894257
	C209.126938,302.669495 196.995789,302.807556 183.965775,302.807556
	C204.365433,246.276657 224.506073,190.463562 244.797943,134.231354
	C218.660400,134.231354 193.002060,134.231354 166.574081,134.231354
	C172.518311,144.572632 178.190323,154.440338 184.038177,164.613953
	C175.345596,174.785294 166.647476,184.963120 157.260361,195.947159
	C172.037872,195.947159 185.886765,195.947159 200.897797,195.947159
	C196.894836,207.141251 193.206329,217.455994 189.475311,227.889587
	C155.513275,227.889587 121.764030,227.889587 87.080460,227.889587
	C94.238541,219.387878 100.893410,211.431442 107.605461,203.523560
	C119.113419,189.965347 130.557541,176.350250 142.273499,162.973648
	C144.499634,160.431992 143.287445,158.912216 142.153793,156.925598
	C132.192429,139.469131 122.229942,122.013306 112.276917,104.552086
	C111.464874,103.127480 110.720268,101.664436 109.637825,99.648376
	C172.952835,99.648376 235.746094,99.648376 299.068939,99.648376
	C296.762634,106.104637 294.489716,112.467552 292.082855,119.198090 z"/>
</svg>